<svg width="20" height="17" viewBox="0 0 20 17" fill="none" xmlns="http://www.w3.org/2000/svg">
<path d="M7.06596 14.6154L7.53027 14.0264L7.06596 14.6154ZM9.71329 2.93062L9.17292 3.45072C9.31431 3.59762 9.5094 3.68062 9.71329 3.68062C9.91717 3.68062 10.1123 3.59762 10.2537 3.45072L9.71329 2.93062ZM12.3606 14.6154L12.8249 15.2043L12.3606 14.6154ZM7.53027 14.0264C6.20391 12.9808 4.77053 11.9719 3.63237 10.6903C2.51992 9.43766 1.75 7.98372 1.75 6.09918H0.25C0.25 8.45185 1.2312 10.2455 2.5108 11.6864C3.76469 13.0983 5.36429 14.2289 6.60164 15.2043L7.53027 14.0264ZM1.75 6.09918C1.75 4.26117 2.78844 2.72483 4.19813 2.08046C5.56053 1.4577 7.40445 1.61334 9.17292 3.45072L10.2537 2.41052C8.10129 0.17429 5.58856 -0.204392 3.57453 0.716224C1.60778 1.61523 0.25 3.69997 0.25 6.09918H1.75ZM6.60164 15.2043C7.04708 15.5555 7.5314 15.935 8.02373 16.2227C8.51582 16.5102 9.08722 16.75 9.71329 16.75V15.25C9.46802 15.25 9.1681 15.154 8.78052 14.9276C8.39318 14.7012 7.9895 14.3884 7.53027 14.0264L6.60164 15.2043ZM12.8249 15.2043C14.0623 14.2289 15.6619 13.0983 16.9158 11.6864C18.1954 10.2455 19.1766 8.45185 19.1766 6.09918H17.6766C17.6766 7.98372 16.9067 9.43766 15.7942 10.6903C14.656 11.9719 13.2227 12.9808 11.8963 14.0264L12.8249 15.2043ZM19.1766 6.09918C19.1766 3.69997 17.8188 1.61523 15.852 0.716224C13.838 -0.204392 11.3253 0.17429 9.17292 2.41052L10.2537 3.45072C12.0221 1.61334 13.866 1.4577 15.2284 2.08046C16.6381 2.72483 17.6766 4.26117 17.6766 6.09918H19.1766ZM11.8963 14.0264C11.4371 14.3884 11.0334 14.7012 10.6461 14.9276C10.2585 15.154 9.95855 15.25 9.71329 15.25V16.75C10.3393 16.75 10.9108 16.5102 11.4028 16.2227C11.8952 15.935 12.3795 15.5555 12.8249 15.2043L11.8963 14.0264Z" fill="#212121"/>
</svg>
