<svg width="27" height="17" viewBox="0 0 27 17" fill="none" xmlns="http://www.w3.org/2000/svg">
<path d="M16.5 16.75C16.9142 16.75 17.25 16.4142 17.25 16C17.25 15.5858 16.9142 15.25 16.5 15.25V16.75ZM6.53033 0.469671C6.23744 0.176778 5.76256 0.176778 5.46967 0.469671L0.696699 5.24264C0.403806 5.53553 0.403806 6.01041 0.696699 6.3033C0.989593 6.5962 1.46447 6.5962 1.75736 6.3033L6 2.06066L10.2426 6.3033C10.5355 6.5962 11.0104 6.5962 11.3033 6.3033C11.5962 6.01041 11.5962 5.53553 11.3033 5.24264L6.53033 0.469671ZM10.5 0.25C10.0858 0.25 9.75 0.585786 9.75 1C9.75 1.41421 10.0858 1.75 10.5 1.75L10.5 0.25ZM17.25 1V1.75V1ZM21 4.75H21.75H21ZM20.4697 16.5303C20.7626 16.8232 21.2374 16.8232 21.5303 16.5303L26.3033 11.7574C26.5962 11.4645 26.5962 10.9896 26.3033 10.6967C26.0104 10.4038 25.5355 10.4038 25.2426 10.6967L21 14.9393L16.7574 10.6967C16.4645 10.4038 15.9896 10.4038 15.6967 10.6967C15.4038 10.9896 15.4038 11.4645 15.6967 11.7574L20.4697 16.5303ZM16.5 15.25H9.75V16.75H16.5V15.25ZM6.75 12.25V1H5.25V12.25H6.75ZM9.75 15.25C8.09315 15.25 6.75 13.9069 6.75 12.25H5.25C5.25 14.7353 7.26472 16.75 9.75 16.75V15.25ZM10.5 1.75L17.25 1.75V0.250001L10.5 0.25L10.5 1.75ZM20.25 4.75L20.25 16H21.75L21.75 4.75H20.25ZM17.25 1.75C18.9069 1.75 20.25 3.09315 20.25 4.75H21.75C21.75 2.26472 19.7353 0.250001 17.25 0.250001V1.75Z" fill="#212121"/>
</svg>
