<svg width="14" height="11" viewBox="0 0 20 21" fill="none" xmlns="http://www.w3.org/2000/svg">
<path d="M19.609 12.0616L19.8382 9.62632C20.0182 7.7137 20.1082 6.75739 19.781 6.36207C19.604 6.14823 19.3633 6.0172 19.106 5.9946C18.6303 5.95282 18.0329 6.6329 16.8381 7.99307C16.2202 8.69649 15.9113 9.0482 15.5666 9.10267C15.3757 9.13285 15.1811 9.10182 15.0047 9.01308C14.6865 8.85292 14.4743 8.41812 14.0499 7.54851L11.8131 2.96485C11.0112 1.32162 10.6102 0.5 10 0.5C9.3898 0.5 8.98885 1.32162 8.18693 2.96486L5.95007 7.54852C5.5257 8.41812 5.31351 8.85292 4.99526 9.01308C4.81892 9.10182 4.62434 9.13285 4.43337 9.10267C4.08872 9.0482 3.77977 8.69649 3.16187 7.99307C1.96708 6.6329 1.36968 5.95282 0.893987 5.9946C0.636658 6.0172 0.395979 6.14823 0.218986 6.36207C-0.108204 6.75739 -0.0181999 7.7137 0.161808 9.62632L0.391002 12.0616C0.768652 16.0742 0.957478 18.0805 2.14009 19.2902C3.32271 20.5 5.09517 20.5 8.64008 20.5H11.3599C14.9048 20.5 16.6773 20.5 17.8599 19.2902C19.0425 18.0805 19.2313 16.0742 19.609 12.0616Z" fill="#E0E0E0"/>
</svg>
